<svg width="41" height="41" viewBox="0 0 41 41" fill="none" xmlns="http://www.w3.org/2000/svg">
<path fill-rule="evenodd" clip-rule="evenodd" d="M20.8536 23.1087C24.0398 23.1087 28.276 23.4708 28.276 26.6037C28.276 29.9039 23.3399 30.1019 21.2225 30.1137L20.4538 30.1138C18.1962 30.1019 13.4312 29.905 13.4312 26.6234C13.4312 23.3196 18.3673 23.1213 20.4846 23.1094L20.739 23.1087C20.7786 23.1087 20.8168 23.1087 20.8536 23.1087ZM20.8536 24.5888C18.1366 24.5888 14.8976 24.9411 14.8976 26.6234C14.8976 27.9575 16.9019 28.6344 20.8536 28.6344C24.8053 28.6344 26.8095 27.9506 26.8095 26.6037C26.8095 25.2667 24.8053 24.5888 20.8536 24.5888ZM20.8536 11.3103C23.6213 11.3103 25.8739 13.5837 25.8739 16.3772C25.8797 17.7231 25.3625 18.994 24.4201 19.9511C23.4796 20.9093 22.2233 21.4391 20.8868 21.4441H20.8536C18.0848 21.4441 15.8323 19.1706 15.8323 16.3772C15.8323 13.5837 18.0848 11.3103 20.8536 11.3103ZM20.8536 12.7904C18.8934 12.7904 17.2988 14.3998 17.2988 16.3772C17.2988 18.3546 18.8934 19.964 20.8536 19.964H20.8839C21.8263 19.96 22.7141 19.586 23.3798 18.9082C24.0466 18.2322 24.4113 17.3333 24.4074 16.3801C24.4074 14.3998 22.8128 12.7904 20.8536 12.7904Z" fill="#19647E"/>
</svg>
