<svg width="41" height="41" viewBox="0 0 41 41" fill="none" xmlns="http://www.w3.org/2000/svg">
<path fill-rule="evenodd" clip-rule="evenodd" d="M19.6995 12.1667C21.7379 12.1667 23.3962 13.8251 23.3962 15.8634V16.6401C23.3962 16.9851 23.1162 17.2651 22.7712 17.2651C22.4262 17.2651 22.1462 16.9851 22.1462 16.6401V15.8634C22.1462 14.5134 21.0487 13.4167 19.6995 13.4167H15.637C14.2895 13.4167 13.1929 14.5134 13.1929 15.8634V25.1376C13.1929 26.4867 14.2895 27.5834 15.637 27.5834H19.7087C21.052 27.5834 22.1462 26.4901 22.1462 25.1467V24.3609C22.1462 24.0159 22.4262 23.7359 22.7712 23.7359C23.1162 23.7359 23.3962 24.0159 23.3962 24.3609V25.1467C23.3962 27.1801 21.7412 28.8334 19.7087 28.8334H15.637C13.6004 28.8334 11.9429 27.1759 11.9429 25.1376V15.8634C11.9429 13.8251 13.6004 12.1667 15.637 12.1667H19.6995ZM26.433 17.6284L28.873 20.0576C28.8947 20.0792 28.9142 20.1016 28.9321 20.1254L28.873 20.0576C28.9025 20.0867 28.9287 20.1185 28.9515 20.1524C28.9615 20.1678 28.9712 20.1837 28.9802 20.2C28.9875 20.2128 28.9941 20.2261 29.0004 20.2396C29.0056 20.2516 29.0107 20.2636 29.0153 20.2757C29.0216 20.2916 29.0271 20.3078 29.032 20.3243C29.0356 20.3373 29.0389 20.3503 29.0419 20.3634C29.0456 20.3793 29.0485 20.3953 29.0508 20.4115C29.0521 20.422 29.0534 20.433 29.0544 20.444C29.0563 20.4631 29.0571 20.4815 29.0571 20.5001L29.0529 20.5517L29.0512 20.5849C29.051 20.5863 29.0508 20.5877 29.0506 20.5891L29.0571 20.5001C29.0571 20.5463 29.052 20.5921 29.042 20.6367C29.0389 20.6499 29.0356 20.6628 29.0319 20.6756C29.0271 20.6923 29.0216 20.7086 29.0155 20.7246C29.0107 20.7366 29.0056 20.7486 29.0002 20.7603C28.9941 20.7741 28.9875 20.7874 28.9803 20.8005C28.9712 20.8165 28.9615 20.8324 28.9512 20.8478C28.9454 20.8569 28.9389 20.8659 28.9323 20.8748C28.9124 20.9009 28.8908 20.9255 28.8674 20.9482L26.433 23.3726C26.3113 23.4942 26.1513 23.5551 25.9921 23.5551C25.8321 23.5551 25.6713 23.4942 25.5496 23.3709C25.3063 23.1259 25.3071 22.7309 25.5513 22.4876L26.9179 21.1251H18.3977C18.0527 21.1251 17.7727 20.8451 17.7727 20.5001C17.7727 20.1551 18.0527 19.8751 18.3977 19.8751H26.9195L25.5513 18.5134C25.3071 18.2701 25.3055 17.8751 25.5496 17.6301C25.793 17.3851 26.188 17.3851 26.433 17.6284Z" fill="#19647E"/>
</svg>
