<svg width="41" height="41" viewBox="0 0 41 41" fill="none" xmlns="http://www.w3.org/2000/svg">
<path d="M26.9512 19.7968C26.9512 19.3995 26.6313 19.0796 26.234 19.0796C25.8367 19.0796 25.5168 19.3995 25.5168 19.7968C25.5168 22.2577 23.2668 24.2581 20.5 24.2581C17.7332 24.2581 15.4832 22.2577 15.4832 19.7968C15.4832 19.3995 15.1633 19.0796 14.766 19.0796C14.3688 19.0796 14.0488 19.3995 14.0488 19.7968C14.0488 22.8272 16.5625 25.3304 19.7828 25.6573V27.6788H18.9531C18.5559 27.6788 18.2359 27.9987 18.2359 28.396C18.2359 28.7933 18.5559 29.1132 18.9531 29.1132H22.0469C22.4441 29.1132 22.7641 28.7933 22.7641 28.396C22.7641 27.9987 22.4441 27.6788 22.0469 27.6788H21.2172V25.6573C24.4375 25.3304 26.9512 22.8272 26.9512 19.7968Z" fill="#19647E"/>
<path d="M20.4998 22.873C22.2928 22.873 23.7447 21.4211 23.7447 19.6281V15.1316C23.7447 13.3387 22.2928 11.8867 20.4998 11.8867C18.7068 11.8867 17.2549 13.3387 17.2549 15.1316V19.6281C17.2549 21.4211 18.7068 22.873 20.4998 22.873ZM18.6611 15.1316C18.6611 14.1191 19.4873 13.293 20.4998 13.293C21.5123 13.293 22.3385 14.1191 22.3385 15.1316V19.6281C22.3385 20.6406 21.5123 21.4668 20.4998 21.4668C19.4873 21.4668 18.6611 20.6406 18.6611 19.6281V15.1316Z" fill="#19647E"/>
</svg>
