<svg width="41" height="41" viewBox="0 0 41 41" fill="none" xmlns="http://www.w3.org/2000/svg">
<path fill-rule="evenodd" clip-rule="evenodd" d="M18.2609 24.1172C18.0689 24.1172 17.8769 24.0442 17.7309 23.8972C16.9929 23.1602 16.5859 22.1802 16.5859 21.1382C16.5859 18.9782 18.3419 17.2212 20.4999 17.2212C21.5379 17.2212 22.5459 17.6402 23.2649 18.3712C23.5549 18.6672 23.5519 19.1412 23.2559 19.4312C22.9609 19.7232 22.4869 19.7182 22.1959 19.4242C21.7569 18.9772 21.1389 18.7212 20.4999 18.7212C19.1689 18.7212 18.0859 19.8052 18.0859 21.1382C18.0859 21.7792 18.3369 22.3832 18.7909 22.8372C19.0839 23.1302 19.0839 23.6042 18.7919 23.8972C18.6449 24.0442 18.4529 24.1172 18.2609 24.1172Z" fill="#19647E"/>
<path fill-rule="evenodd" clip-rule="evenodd" d="M21.0676 24.9913C20.7126 24.9913 20.3966 24.7373 20.3306 24.3753C20.2566 23.9683 20.5266 23.5773 20.9346 23.5033C21.9146 23.3253 22.6906 22.5473 22.8666 21.5663C22.9406 21.1593 23.3306 20.8913 23.7376 20.9613C24.1456 21.0343 24.4166 21.4243 24.3436 21.8323C24.0566 23.4253 22.7946 24.6893 21.2026 24.9793C21.1576 24.9873 21.1116 24.9913 21.0676 24.9913Z" fill="#19647E"/>
<mask id="mask0_8_1051" style="mask-type:luminance" maskUnits="userSpaceOnUse" x="10" y="13" width="17" height="15">
<path fill-rule="evenodd" clip-rule="evenodd" d="M10.5 13.1245H26.5862V27.2226H10.5V13.1245Z" fill="white"/>
</mask>
<g mask="url(#mask0_8_1051)">
<path fill-rule="evenodd" clip-rule="evenodd" d="M15.1545 27.2226C14.9925 27.2226 14.8295 27.1696 14.6915 27.0626C13.0005 25.7346 11.5715 23.7876 10.5615 21.4336C10.4795 21.2436 10.4795 21.0296 10.5615 20.8406C11.5825 18.4766 13.0205 16.5196 14.7205 15.1826C18.1865 12.4396 22.8005 12.4306 26.3015 15.2026C26.6265 15.4596 26.6815 15.9316 26.4245 16.2566C26.1665 16.5796 25.6965 16.6366 25.3705 16.3786C22.4045 14.0306 18.5835 14.0386 15.6495 16.3606C14.2135 17.4906 12.9805 19.1366 12.0705 21.1386C12.9715 23.1286 14.1935 24.7646 15.6185 25.8826C15.9445 26.1386 16.0005 26.6106 15.7445 26.9356C15.5965 27.1236 15.3765 27.2226 15.1545 27.2226Z" fill="#19647E"/>
</g>
<mask id="mask1_8_1051" style="mask-type:luminance" maskUnits="userSpaceOnUse" x="17" y="17" width="14" height="13">
<path fill-rule="evenodd" clip-rule="evenodd" d="M17.2178 17.2412H30.5003V29.1894H17.2178V17.2412Z" fill="white"/>
</mask>
<g mask="url(#mask1_8_1051)">
<path fill-rule="evenodd" clip-rule="evenodd" d="M20.5004 29.1894C19.5634 29.1894 18.6314 29.0374 17.7314 28.7384C17.3384 28.6074 17.1254 28.1824 17.2564 27.7894C17.3874 27.3954 17.8104 27.1864 18.2054 27.3144C18.9524 27.5634 19.7244 27.6894 20.5004 27.6894C23.9284 27.6894 27.0614 25.2474 28.9304 21.1364C28.4744 20.1374 27.9434 19.2324 27.3494 18.4424C27.1004 18.1114 27.1664 17.6404 27.4974 17.3914C27.8274 17.1424 28.2984 17.2104 28.5474 17.5404C29.2714 18.5014 29.9074 19.6124 30.4384 20.8384C30.5214 21.0284 30.5214 21.2444 30.4384 21.4334C28.3424 26.2904 24.6274 29.1894 20.5004 29.1894Z" fill="#19647E"/>
</g>
<mask id="mask2_8_1051" style="mask-type:luminance" maskUnits="userSpaceOnUse" x="11" y="12" width="19" height="18">
<path fill-rule="evenodd" clip-rule="evenodd" d="M11.8633 12.5005H29.1368V29.7735H11.8633V12.5005Z" fill="white"/>
</mask>
<g mask="url(#mask2_8_1051)">
<path fill-rule="evenodd" clip-rule="evenodd" d="M12.613 29.7735C12.421 29.7735 12.229 29.7005 12.083 29.5535C11.79 29.2605 11.79 28.7865 12.083 28.4935L27.857 12.7195C28.15 12.4265 28.624 12.4265 28.917 12.7195C29.21 13.0125 29.21 13.4875 28.917 13.7805L13.143 29.5535C12.997 29.7005 12.805 29.7735 12.613 29.7735Z" fill="#19647E"/>
</g>
</svg>
