<svg width="41" height="41" viewBox="0 0 41 41" fill="none" xmlns="http://www.w3.org/2000/svg">
<path d="M28.3745 12.6177H12.6245C12.0029 12.6177 11.4995 13.1211 11.4995 13.7427V23.8941C11.4995 24.5157 12.0029 25.0191 12.6245 25.0191H14.8666V27.8198C14.8666 28.0471 15.0028 28.2512 15.212 28.3384C15.2823 28.3677 15.3566 28.3823 15.4291 28.3823C15.5743 28.3823 15.716 28.3266 15.8234 28.2209L19.0758 25.0191H28.3751C28.9966 25.0191 29.5001 24.5157 29.5001 23.8941V13.7427C29.5001 13.1217 28.9961 12.6177 28.3745 12.6177ZM28.3745 23.8936H18.6146L15.9911 26.476V23.8936H12.6239V13.7421H28.3739L28.3745 23.8936ZM15.437 19.3919H25.562C25.8725 19.3919 26.1245 19.1399 26.1245 18.8294C26.1245 18.5189 25.8725 18.2669 25.562 18.2669H15.437C15.1265 18.2669 14.8745 18.5189 14.8745 18.8294C14.8745 19.1399 15.1265 19.3919 15.437 19.3919ZM15.437 17.1419H25.562C25.8725 17.1419 26.1245 16.8899 26.1245 16.5794C26.1245 16.2689 25.8725 16.0169 25.562 16.0169H15.437C15.1265 16.0169 14.8745 16.2689 14.8745 16.5794C14.8745 16.8899 15.1265 17.1419 15.437 17.1419ZM15.437 21.6424H22.187C22.4975 21.6424 22.7495 21.3904 22.7495 21.0799C22.7495 20.7694 22.4975 20.5174 22.187 20.5174H15.437C15.1265 20.5174 14.8745 20.7694 14.8745 21.0799C14.8745 21.3904 15.1265 21.6424 15.437 21.6424Z" fill="#19647E"/>
</svg>
